<svg width="393" height="393" viewBox="0 0 393 393" fill="none" xmlns="http://www.w3.org/2000/svg">
<g clip-path="url(#clip0_1783_5827)">
<path d="M73.6875 85.9688H236.798L245.625 86.7363L255.22 88.6553L264.431 91.7256L273.258 95.9473L280.55 100.937L284.771 104.391L290.528 109.764L294.75 114.753L298.204 119.742L301.274 124.731L305.112 132.791L307.415 139.699L309.334 147.375L310.102 153.516V168.1L308.566 176.927L306.647 183.451L303.193 191.511L299.355 198.419L294.75 204.56L289.377 210.316L285.155 214.154L282.469 216.073H281.701L283.62 221.062L288.609 231.425L293.599 242.171L300.123 255.604L306.647 269.42L314.323 285.155L318.545 293.982L323.15 303.961L324.686 306.647V307.415H280.166L277.479 306.647L274.409 303.961L270.955 297.82L265.582 286.69L261.36 277.863L251.766 258.29L247.544 249.463L244.09 242.171L241.02 236.03L239.484 233.344L233.344 232.96L184.986 233.344L181.148 240.636L176.927 249.463L172.705 257.906L167.716 268.652L163.11 277.863L158.889 286.69L154.283 296.285L151.213 302.042L149.678 303.961L146.607 306.264L143.153 307.415H73.6875V85.9688Z" fill="#689690"/>
<path d="M117.055 127.418H237.564L245.624 129.337L251.765 132.407L256.754 136.245L259.824 139.315L263.278 144.305L265.581 149.294L267.116 155.818V164.262L265.581 170.402L262.511 176.543L259.44 180.381L255.603 184.219L250.229 187.673L244.473 189.976L238.716 191.127L235.646 191.511L163.877 191.895L160.807 192.662L158.888 193.813L156.201 198.035L151.596 207.63L146.606 218.376L141.617 228.738L136.628 239.484L129.72 254.068L123.579 267.117L121.66 270.571L121.276 270.955H117.438L117.055 270.571V127.418Z" fill="#FBF9F4"/>
<path d="M212.62 267.885L218.761 268.269L223.366 269.42L227.204 270.955L231.81 274.409L234.496 277.096L237.566 282.469L239.102 286.69L239.869 290.528V295.901L238.718 301.658L235.647 308.95L231.426 315.858L227.588 321.231L223.366 326.604L219.528 330.826L216.842 333.896L214.539 336.199L213.004 335.432L211.469 334.28V333.513H210.701L208.015 330.442L204.561 326.604L200.339 321.231L195.35 313.939L193.047 310.102L190.36 303.961L188.825 298.588L188.441 296.285V291.296L189.593 285.923L191.128 282.085L193.814 277.479L198.036 273.258L203.409 270.188L208.015 268.652L212.62 267.885Z" fill="#689690"/>
</g>
<defs>
<clipPath id="clip0_1783_5827">
<rect width="393" height="393" fill="white"/>
</clipPath>
</defs>
</svg>
